{"title":"Skovenija ima talent 19-okt-2014 TvRip H264","uid":11247795,"size":755817986,"categoryP":"video","categoryS":"tv_shows","magnet":"?xt=urn:btih:2be8078f1744cb85b6406fab637032622bd748dc&amp;dn=Skovenija+ima+talent+19-okt-2014+TvRip+H264&amp;tr=udp%3A%2F%2Ftracker.openbittorrent.com%3A80&amp;tr=udp%3A%2F%2Fopen.demonii.com%3A1337&amp;tr=udp%3A%2F%2Ftracker.coppersurfer.tk%3A6969&amp;tr=udp%3A%2F%2Fexodus.desync.com%3A6969","seeders":0,"leechers":0,"uploader":null,"files":1,"time":1413766858,"description":"General\nComplete name                            : Skovenija ima talent 19-okt-2014 TvRip H264\nFormat                                   : AVI\nFormat/Info                              : Audio Video Interleave\nFile size                                : 721 MiB\nDuration                                 : 1h 17mn\nOverall bit rate                         : 1 304 Kbps\nWriting library                          : VirtualDub build 35390/release\n\nVideo\nID                                       : 0\nFormat                                   : AVC\nFormat/Info                              : Advanced Video Codec\nFormat profile                           : &lt;a class=&quot;__cf_email__&quot; href=&quot;/cdn-cgi/l/email-protection&quot; data-cfemail=&quot;bbf3d2dcd3fbf78e958a&quot;&gt;[email&amp;#160;protected]&lt;/a&gt;&lt;script cf-hash='f9e31' type=&quot;text/javascript&quot;&gt;\n/* &lt;![CDATA[ */!function(){try{var t=&quot;currentScript&quot;in document?document.currentScript:function(){for(var t=document.getElementsByTagName(&quot;script&quot;),e=t.length;e--;)if(t[e].getAttribute(&quot;cf-hash&quot;))return t[e]}();if(t&amp;&amp;t.previousSibling){var e,r,n,i,c=t.previousSibling,a=c.getAttribute(&quot;data-cfemail&quot;);if(a){for(e=&quot;&quot;,r=parseInt(a.substr(0,2),16),n=2;a.length-n;n+=2)i=parseInt(a.substr(n,2),16)^r,e+=String.fromCharCode(i);e=document.createTextNode(e),c.parentNode.replaceChild(e,c)}}}catch(u){}}();/* ]]&gt; */&lt;/script&gt;\nFormat settings, CABAC                   : Yes\nFormat settings, ReFrames                : 3 frames\nCodec ID                                 : H264\nDuration                                 : 1h 17mn\nBit rate                                 : 1 238 Kbps\nWidth                                    : 768 pixels\nHeight                                   : 432 pixels\nDisplay aspect ratio                     : 16:9\nFrame rate                               : 25.000 fps\nColor space                              : YUV\nChroma subsampling                       : 4:2:0\nBit depth                                : 8 bits\nScan type                                : Progressive\nBits/(Pixel*Frame)                       : 0.149\nStream size                              : 685 MiB (95%)\nWriting library                          : x264 core 130 r2274bm c832fe9\nEncoding settings                        : cabac=1 / ref=3 / deblock=1:-1:-1 \n\nAudio\nID                                       : 1\nFormat                                   : MPEG Audio\nFormat version                           : Version 2\nFormat profile                           : Layer 3\nMode                                     : Joint stereo\nMode extension                           : Intensity Stereo + MS Stereo\nCodec ID                                 : 55\nCodec ID/Hint                            : MP3\nDuration                                 : 1h 17mn\nBit rate mode                            : Constant\nBit rate                                 : 56.0 Kbps\nChannel(s)                               : 2 channels\nSampling rate                            : 22.05 KHz\nCompression mode                         : Lossy\nStream size                              : 30.8 MiB (4%)\nAlignment                                : Split accross interleaves\nInterleave, duration                     : 40 ms (1.00 video frame)\nInterleave, preload duration             : 502 ms","torrent":{"xt":"urn:btih:2be8078f1744cb85b6406fab637032622bd748dc","amp;dn":"Skovenija+ima+talent+19-okt-2014+TvRip+H264","amp;tr":["udp%3A%2F%2Ftracker.openbittorrent.com%3A80","udp%3A%2F%2Fopen.demonii.com%3A1337","udp%3A%2F%2Ftracker.coppersurfer.tk%3A6969","udp%3A%2F%2Fexodus.desync.com%3A6969"],"infoHash":"2be8078f1744cb85b6406fab637032622bd748dc","infoHashBuffer":{"type":"Buffer","data":[43,232,7,143,23,68,203,133,182,64,111,171,99,112,50,98,43,215,72,220]},"announce":[],"urlList":[]}}